<?xml version="1.0" encoding="UTF-8" standalone="no"?>
<!-- Created with Inkscape (http://www.inkscape.org/) -->

<svg
   width="113.39096mm"
   height="119.38306mm"
   viewBox="0 0 113.39096 119.38306"
   version="1.1"
   id="svg1"
   xml:space="preserve"
   inkscape:version="1.3.2 (091e20e, 2023-11-25, custom)"
   sodipodi:docname="components_sketch.svg"
   xmlns:inkscape="http://www.inkscape.org/namespaces/inkscape"
   xmlns:sodipodi="http://sodipodi.sourceforge.net/DTD/sodipodi-0.dtd"
   xmlns:xlink="http://www.w3.org/1999/xlink"
   xmlns="http://www.w3.org/2000/svg"
   xmlns:svg="http://www.w3.org/2000/svg"><sodipodi:namedview
     id="namedview1"
     pagecolor="#ffffff"
     bordercolor="#000000"
     borderopacity="0.25"
     inkscape:showpageshadow="2"
     inkscape:pageopacity="0.0"
     inkscape:pagecheckerboard="0"
     inkscape:deskcolor="#d1d1d1"
     inkscape:document-units="mm"
     inkscape:zoom="3.0467172"
     inkscape:cx="295.56403"
     inkscape:cy="298.84625"
     inkscape:window-width="1920"
     inkscape:window-height="1111"
     inkscape:window-x="-9"
     inkscape:window-y="-9"
     inkscape:window-maximized="1"
     inkscape:current-layer="layer1" /><defs
     id="defs1"><linearGradient
       id="linearGradient30"
       inkscape:collect="always"><stop
         style="stop-color:#f2f2f2;stop-opacity:1;"
         offset="0"
         id="stop30" /><stop
         style="stop-color:#f2f2f2;stop-opacity:0;"
         offset="1"
         id="stop31" /></linearGradient><linearGradient
       inkscape:collect="always"
       xlink:href="#linearGradient30"
       id="linearGradient31"
       x1="315.99585"
       y1="223.31413"
       x2="335.64816"
       y2="240.58682"
       gradientUnits="userSpaceOnUse" /></defs><g
     inkscape:label="Layer 1"
     inkscape:groupmode="layer"
     id="layer1"
     transform="translate(-37.45626,-34.701385)"><path
       style="opacity:1;fill:none;stroke:#000000;stroke-width:1.712;stroke-opacity:1"
       d="m 48.838679,61.683458 c 0,0 25.050951,-6.7479 44.505298,-6.51571 20.948003,0.25001 44.975483,6.53678 44.975483,6.53678"
       id="path1"
       sodipodi:nodetypes="csc" /><path
       style="fill:none;stroke:#000000;stroke-width:1.712;stroke-opacity:1"
       d="m 48.660348,71.601352 c 0,0 25.296578,-4.168821 44.750925,-3.936631 20.948007,0.25001 44.729857,3.957701 44.729857,3.957701"
       id="path1-4"
       sodipodi:nodetypes="csc" /><rect
       style="opacity:0.67;fill:none;stroke:#000000;stroke-width:1.69468;stroke-opacity:1"
       id="rect2"
       width="111.69628"
       height="117.68838"
       x="38.3036"
       y="35.548725"
       ry="0" /><path
       style="opacity:1;fill:#999999;stroke:#000000;stroke-width:1.712;stroke-opacity:1"
       d="m 91.439185,135.83127 -0.101743,-12.8737 c 0,0 -3.44185,-6.99778 1.515901,-6.9263 5.952171,0.0858 1.813898,6.82456 1.813898,6.82456 l 0.245627,13.03504"
       id="path3"
       sodipodi:nodetypes="ccscc" /><rect
       style="opacity:1;fill:#999999;stroke:#000000;stroke-width:1.712;stroke-opacity:1"
       id="rect3"
       width="12.035702"
       height="8.1056767"
       x="87.197433"
       y="135.34024"
       ry="1.9580956" /><path
       style="opacity:1;fill:none;stroke:#000000;stroke-width:1.712;stroke-opacity:1"
       d="M 49.616566,93.460907 H 137.05962"
       id="path4" /><rect
       style="opacity:1;fill:#cccccc;stroke:#000000;stroke-width:1.009;stroke-dasharray:none;stroke-opacity:1"
       id="rect4"
       width="20.590103"
       height="20.344477"
       x="82.551796"
       y="92.131233"
       ry="1.9778403" /><rect
       style="opacity:1;fill:none;stroke:#000000;stroke-width:1.62846;stroke-opacity:1"
       id="rect5"
       width="5.6101403"
       height="8.3120327"
       x="118.68076"
       y="138.17926"
       ry="1.9779758" /><rect
       style="opacity:1;fill:none;stroke:#000000;stroke-width:1.21246;stroke-opacity:1"
       id="rect6"
       width="1.8504885"
       height="5.9033265"
       x="120.43776"
       y="132.44466"
       ry="0.73791581" /><rect
       style="opacity:1;fill:none;stroke:#000000;stroke-width:1.62846;stroke-opacity:1"
       id="rect5-6"
       width="5.6101403"
       height="8.3120327"
       x="127.4244"
       y="138.42401"
       ry="1.9779758" /><rect
       style="opacity:1;fill:none;stroke:#000000;stroke-width:1.21246;stroke-opacity:1"
       id="rect6-7"
       width="1.8504885"
       height="5.9033265"
       x="129.18141"
       y="132.68941"
       ry="0.73791581" /><path
       style="opacity:1;fill:none;stroke:#000000;stroke-width:1.712;stroke-opacity:1"
       d="M 49.002499,94.320602 V 70.863263"
       id="path6" /><path
       style="opacity:1;fill:none;stroke:#000000;stroke-width:1.712;stroke-opacity:1"
       d="M 137.7965,94.3206 V 70.863264"
       id="path7" /><path
       style="opacity:1;fill:#000000;stroke:none;stroke-width:2.647;stroke-dasharray:none;stroke-opacity:1"
       d="m 117.04106,109.67226 2.45626,9.45662 h 3.6844 l 2.21064,-9.21099"
       id="path8"
       sodipodi:nodetypes="cccc" /><rect
       style="opacity:1;fill:#857f7a;fill-opacity:1;stroke:#000000;stroke-width:0.4;stroke-dasharray:none;stroke-opacity:1"
       id="rect8"
       width="5.2809711"
       height="8.4741163"
       x="89.530884"
       y="57.353802"
       ry="1.1667261" /><rect
       style="fill:#ffff00;fill-opacity:1;stroke:#000000;stroke-width:0.377718;stroke-dasharray:none;stroke-opacity:1"
       id="rect8-8"
       width="16.479261"
       height="4.8119998"
       x="83.797455"
       y="48.431431"
       ry="0.66252172" /><rect
       style="fill:#ffff00;fill-opacity:1;stroke:#000000;stroke-width:0.515505;stroke-dasharray:none;stroke-opacity:1"
       id="rect8-8-6"
       width="7.7358165"
       height="10.116745"
       x="88.384178"
       y="42.902916"
       ry="1.392885" /><rect
       style="opacity:1;fill:#36e200;fill-opacity:1;stroke:#000000;stroke-width:0.416351;stroke-dasharray:none;stroke-opacity:1"
       id="rect9"
       width="9.0718327"
       height="8.9490185"
       x="88.433746"
       y="94.328781"
       ry="1.1807733" /><rect
       style="fill:#008821;fill-opacity:1;stroke:#000000;stroke-width:0.4;stroke-dasharray:none;stroke-opacity:1"
       id="rect9-3"
       width="8.4741163"
       height="3.5615847"
       x="103.48756"
       y="89.420898"
       ry="0.46993133" /><rect
       style="fill:#2a8200;fill-opacity:1;stroke:#000000;stroke-width:0.4;stroke-dasharray:none;stroke-opacity:1"
       id="rect9-3-6"
       width="8.4741163"
       height="6.631917"
       x="93.088768"
       y="84.800179"
       ry="0.87504458" /><rect
       style="fill:#ff6600;stroke:#000000;stroke-width:0.401;stroke-dasharray:none;stroke-opacity:1"
       id="rect9-3-6-5"
       width="7.4916101"
       height="5.1581578"
       x="83.355263"
       y="86.622604"
       ry="0.68059021" /><rect
       style="fill:#ffccaa;stroke:#000000;stroke-width:0.371;stroke-dasharray:none;stroke-opacity:1"
       id="rect9-3-6-5-2"
       width="4.5440912"
       height="4.421278"
       x="85.819786"
       y="89.201683"
       ry="0.58336306" /><rect
       style="fill:#007903;fill-opacity:1;stroke:#000000;stroke-width:0.4;stroke-dasharray:none;stroke-opacity:1"
       id="rect9-3-6-2"
       width="8.3513031"
       height="8.3513031"
       x="117.66795"
       y="83.778938"
       ry="1.101908" /><rect
       style="opacity:0.93;fill:#ff0000;fill-opacity:1;stroke:#000000;stroke-width:0.509755;stroke-dasharray:none;stroke-opacity:1"
       id="rect9-4-2"
       width="9.592494"
       height="13.031267"
       x="106.41479"
       y="106.16429"
       ry="1.7194031" /><rect
       style="opacity:1;fill:#9fffae;fill-opacity:1;stroke:#000000;stroke-width:0.4;stroke-dasharray:none;stroke-opacity:1"
       id="rect10"
       width="3.3159585"
       height="8.7197428"
       x="83.390213"
       y="94.566231"
       ry="1.6579792" /><rect
       style="opacity:1;fill:#fa8dff;fill-opacity:1;stroke:#000000;stroke-width:0.380327;stroke-dasharray:none;stroke-opacity:1"
       id="rect11"
       width="3.2128181"
       height="8.9850416"
       x="98.977676"
       y="94.433586"
       ry="1.6616174" /><rect
       style="opacity:1;fill:#000000;stroke:none;stroke-width:2.29387;stroke-dasharray:none;stroke-opacity:1"
       id="rect7"
       width="26.75798"
       height="6.3709741"
       x="108.63602"
       y="103.47784"
       ry="0.86463219" /><text
       xml:space="preserve"
       style="font-size:3.88056px;opacity:1;fill:#000000;fill-opacity:1;stroke:#000000;stroke-width:0.3;stroke-dasharray:none;stroke-opacity:1"
       x="84.383255"
       y="107.14586"
       id="text12"><tspan
         sodipodi:role="line"
         id="tspan12"
         style="font-size:3.88056px;fill:#000000;stroke-width:0.3;stroke-dasharray:none"
         x="84.383255"
         y="107.14586">1.</tspan></text><text
       xml:space="preserve"
       style="font-size:3.88056px;opacity:1;fill:#000000;fill-opacity:1;stroke:#000000;stroke-width:0.3;stroke-dasharray:none;stroke-opacity:1"
       x="98.315086"
       y="107.6473"
       id="text12-7"><tspan
         sodipodi:role="line"
         id="tspan12-8"
         style="font-size:3.88056px;fill:#000000;stroke-width:0.3;stroke-dasharray:none"
         x="98.315086"
         y="107.6473">2.</tspan></text><text
       xml:space="preserve"
       style="font-size:3.88056px;opacity:1;fill:#000000;fill-opacity:1;stroke:#000000;stroke-width:0.3;stroke-dasharray:none;stroke-opacity:1"
       x="91.309929"
       y="100.46482"
       id="text12-7-8"><tspan
         sodipodi:role="line"
         id="tspan12-8-4"
         style="font-size:3.88056px;fill:#000000;stroke-width:0.3;stroke-dasharray:none"
         x="91.309929"
         y="100.46482">4.</tspan></text><text
       xml:space="preserve"
       style="font-size:3.88056px;opacity:1;fill:#000000;fill-opacity:1;stroke:#000000;stroke-width:0.3;stroke-dasharray:none;stroke-opacity:1"
       x="90.61026"
       y="49.062019"
       id="text12-7-8-1-3-5-4"><tspan
         sodipodi:role="line"
         id="tspan12-8-4-2-8-0-8"
         style="font-size:3.88056px;fill:#000000;stroke-width:0.3;stroke-dasharray:none"
         x="90.61026"
         y="49.062019">7.</tspan></text><text
       xml:space="preserve"
       style="font-size:3.88056px;opacity:1;fill:#000000;fill-opacity:1;stroke:#000000;stroke-width:0.3;stroke-dasharray:none;stroke-opacity:1"
       x="86.400787"
       y="92.807274"
       id="text12-7-8-1-3-5-4-1"><tspan
         sodipodi:role="line"
         id="tspan12-8-4-2-8-0-8-2"
         style="font-size:3.88056px;fill:#000000;stroke-width:0.3;stroke-dasharray:none"
         x="86.400787"
         y="92.807274">9.</tspan></text><path
       style="opacity:1;fill:#f2f2f2;fill-opacity:1;stroke:#000000;stroke-width:0.52631;stroke-dasharray:none;stroke-opacity:1"
       d="M 148.30429,356.7194 V 137.62824 H 355.79105 563.2778 V 356.7194 575.81056 H 355.79105 148.30429 Z m 351.63937,200.11279 c 2.45775,-1.11634 5.08415,-4.22693 5.72803,-6.78403 0.8024,-3.1866 0.66687,-19.9667 -0.18441,-22.83327 -0.76468,-2.57494 -3.47956,-5.49473 -6.1226,-6.58469 l -1.48142,-0.61092 -0.14319,-9.04541 -0.1432,-9.04542 -1.51589,-1.35348 c -1.33663,-1.19342 -1.85811,-1.35173 -4.40968,-1.33872 -3.00796,0.0154 -3.79186,0.36648 -5.11991,2.29336 -0.67818,0.98398 -0.79101,2.42402 -0.79101,10.09583 0,7.04318 -0.12876,8.94816 -0.60482,8.94816 -1.34205,0 -4.47726,2.90381 -5.62761,5.21226 -1.1803,2.36856 -1.19427,2.52305 -1.18419,13.09779 0.0112,11.78337 0.23469,12.93542 3.05656,15.75728 2.50366,2.50367 4.43808,3.04637 10.85853,3.04637 4.64579,0 6.17741,-0.17042 7.68481,-0.85511 z m -33.31564,-0.77374 c 2.18908,-0.91443 4.08704,-2.71182 5.36563,-5.08131 0.94699,-1.75498 1.00189,-2.46709 1.00189,-12.99694 0,-10.52984 -0.0549,-11.24196 -1.00189,-12.99693 -1.28119,-2.37431 -3.17735,-4.16722 -5.38054,-5.08754 l -1.74066,-0.72712 v -8.13177 c 0,-11.19568 -0.74926,-12.7437 -6.16809,-12.7437 -5.48018,0 -5.90049,0.88752 -5.90049,12.45938 v 8.79208 l -1.18855,0.29831 c -1.78894,0.449 -5.01282,3.93178 -5.6674,6.12257 -0.37797,1.26498 -0.57087,5.42975 -0.57087,12.32557 0,10.23218 0.0208,10.4567 1.18313,12.78925 1.15528,2.31834 3.26598,4.35214 5.40933,5.21224 1.87904,0.75404 12.70696,0.58112 14.65851,-0.23409 z m -93.4053,-12.05623 c 1.40535,-0.86922 2.80685,-2.27043 3.67607,-3.67532 l 1.4048,-2.27054 0.14797,-10.08178 c 0.16224,-11.05353 -0.0709,-12.69261 -2.22917,-15.67201 -2.08789,-2.88225 -4.50693,-3.93003 -9.62851,-4.17047 l -4.2829,-0.20106 -0.22107,-1.45367 c -0.12158,-0.79952 -0.34805,-10.33105 -0.50326,-21.18117 l -0.2822,-19.72748 1.63592,-3.53005 c 2.55651,-5.5165 3.67263,-10.177 3.42929,-14.31946 -0.33215,-5.65446 -2.41764,-8.82046 -7.32655,-11.12258 -2.28355,-1.07091 -3.1244,-1.19863 -7.89382,-1.19898 -5.85188,-4.2e-4 -7.61322,0.56143 -10.40221,3.31823 -4.23294,4.18409 -4.41619,12.66782 -0.49951,23.12502 l 1.61819,4.32045 v 20.88297 20.88296 l -4.06154,0.20423 c -5.61106,0.28215 -8.37805,1.78883 -10.48914,5.71153 -0.94351,1.75319 -0.99922,2.47778 -0.99922,12.99693 v 11.14023 l 1.27828,2.17451 c 0.70305,1.19597 1.93232,2.64022 2.73171,3.20944 3.09716,2.20537 3.69537,2.26196 22.71747,2.14911 l 17.90811,-0.10624 z m 149.48609,-51.46487 1.57819,-1.5782 V 476.5306 462.10204 l -1.35445,-1.51589 -1.35445,-1.5159 h -6.99179 -6.9918 l -1.51749,1.51675 -1.5175,1.51675 -0.14236,13.18956 c -0.1609,14.90746 0.0496,16.49801 2.37078,17.91333 1.28331,0.78247 2.35809,0.90568 7.91383,0.90718 l 6.42884,0.002 z m -53.20735,-36.27269 c 9.53809,-1.54683 20.59568,-6.57265 27.17981,-12.3536 1.28571,-1.12886 1.65958,-1.27065 1.87441,-0.71083 0.58339,1.5203 2.6308,1.76492 13.571,1.6214 9.56667,-0.1255 10.82669,-0.23101 11.56444,-0.96843 0.70656,-0.70622 0.8501,-1.8595 0.97884,-7.86467 0.083,-3.8704 0.0183,-7.74364 -0.14368,-8.60722 -0.41551,-2.21484 -2.27443,-2.89219 -7.93741,-2.89219 -4.05671,0 -4.45381,-0.0765 -4.21435,-0.8123 0.1454,-0.44677 0.98048,-2.79728 1.85574,-5.22335 3.98547,-11.04705 4.1687,-24.62471 0.48964,-36.28373 -2.55005,-8.08114 -7.41837,-16.13694 -13.48054,-22.30674 l -3.08876,-3.1436 h 13.0682 13.0682 v -44.51059 -44.51059 l -1.04439,-0.25923 c -5.15715,-1.28006 -48.65181,-6.69717 -74.84841,-9.32212 -73.4469,-7.35952 -119.0895,-7.5911 -186.83092,-0.94796 -24.19213,2.37243 -70.15958,8.30294 -77.63347,10.01592 l -2.20483,0.50534 v 44.51461 44.51462 h 63.59214 63.59213 v 31.162 c 0,23.20179 0.14494,31.65003 0.56738,33.07255 0.74604,2.51219 4.16901,5.93517 6.68121,6.68121 2.74286,0.81454 66.77586,0.81454 69.51872,0 2.51219,-0.74604 5.93517,-4.16902 6.68121,-6.68121 0.42244,-1.42252 0.56737,-9.87076 0.56737,-33.07255 v -31.162 h 14.46773 14.46774 l -3.0576,3.13319 c -5.08727,5.21304 -7.18104,8.13841 -10.27402,14.35457 -3.84515,7.72784 -5.85615,16.01747 -5.85615,24.13986 0,3.28838 -0.20132,4.7401 -0.81231,5.85745 -0.72647,1.32854 -0.82797,3.39844 -0.96057,19.58839 -0.0816,9.95658 -0.0156,19.18895 0.14652,20.51637 0.3495,2.86152 1.71552,5.06881 3.94882,6.38075 1.53764,0.90328 2.38188,0.95609 16.04498,1.00353 l 14.42194,0.0501 3.68093,1.41426 c 2.02451,0.77785 4.62089,1.66805 5.76973,1.97822 6.93715,1.873 17.1172,2.34025 24.58858,1.12859 z M 274.47623,382.9361 c 0.84735,-0.5055 1.99619,-1.65017 2.55297,-2.54371 0.93379,-1.49856 1.01234,-2.21889 1.01234,-9.28353 0,-7.06463 -0.0786,-7.78496 -1.01234,-9.28352 -1.95214,-3.13284 -3.12857,-3.48132 -11.75251,-3.48132 -8.62393,0 -9.80036,0.34848 -11.75251,3.48132 -0.93379,1.49856 -1.01233,2.21889 -1.01233,9.28352 0,7.08052 0.0769,7.7816 1.01803,9.28353 2.01123,3.20959 3.75589,3.70029 12.67516,3.56494 5.76376,-0.0875 6.95186,-0.23415 8.27119,-1.02123 z m 82.55828,-134.18114 c 2.19578,-1.62955 2.41755,-3.09462 2.41755,-15.9706 0,-12.87726 -0.22175,-14.34154 -2.41857,-15.97061 -1.20063,-0.89034 -1.92753,-0.97182 -8.66926,-0.97182 -11.41496,0 -11.26019,-0.25147 -11.05067,17.95389 0.13492,11.7224 0.19443,12.45371 1.11436,13.6932 1.53761,2.07174 3.37002,2.47345 10.71559,2.34915 5.85105,-0.099 6.72681,-0.21924 7.891,-1.08321 z m -28.7459,-11.57114 c 1.24072,-1.42795 1.39556,-4.15572 0.32282,-5.68727 -0.44444,-0.63452 -1.42175,-1.14216 -2.54454,-1.3217 -2.28098,-0.36474 -1.94053,-1.1039 0.50845,-1.1039 1.70668,0 1.82931,-0.0897 1.82931,-1.33839 0,-1.58359 -1.01175,-2.00365 -3.48333,-1.44621 -1.96464,0.44309 -2.84753,1.11406 -3.74201,2.84379 -0.81818,1.5822 -0.85799,5.80001 -0.0694,7.35848 1.30215,2.57354 5.21724,2.95269 7.17874,0.6952 z m 5.68616,-0.68605 c 0,-1.8125 -0.0387,-1.85671 -1.62462,-1.85671 -1.58594,0 -1.62462,0.0442 -1.62462,1.85671 0,1.81249 0.0387,1.8567 1.62462,1.8567 1.58594,0 1.62462,-0.0442 1.62462,-1.8567 z m -140.27853,-2.06052 c 48.90108,-12.25751 101.26349,-20.43077 142.02064,-22.16803 44.43797,-1.89416 110.4016,6.31863 176.42137,21.96533 5.44478,1.29041 9.9565,2.27531 10.02602,2.18867 0.421,-0.52465 1.5555,-6.24414 1.2877,-6.49181 -0.88891,-0.82211 -32.85278,-7.87389 -52.08105,-11.48998 -43.47646,-8.17624 -79.16723,-12.3264 -114.41943,-13.3048 -36.81388,-1.02174 -88.48262,5.34208 -145.33249,17.9 -7.37876,1.62993 -27.72387,6.54669 -27.9673,6.75878 -0.18532,0.16148 1.45042,6.70236 1.67613,6.70236 0.0814,0 3.84719,-0.92724 8.36841,-2.06052 z M 378.8539,201.13947 c 1.04131,-0.97827 1.07431,-1.25183 1.07431,-8.90548 0,-10.51163 0.40111,-10.04484 -8.63131,-10.04484 h -6.61277 l -0.15291,-8.55455 c -0.13914,-7.78418 -0.23949,-8.67246 -1.11426,-9.86375 -1.99091,-2.71127 -3.09911,-2.93331 -14.58855,-2.92289 -15.85756,0.0144 -15.78199,-0.0477 -15.78199,12.96297 v 8.37822 h -7.65891 c -10.18503,0 -9.51561,-0.70206 -9.51561,9.97979 0,7.50419 0.0707,8.19382 0.92835,9.05144 0.90921,0.90921 1.54725,0.92835 30.95384,0.92835 h 30.02549 z m -71.63186,-2.73784 c 0.93045,-0.73189 1.22304,-1.37595 1.22304,-2.69222 0,-0.9516 -0.22823,-1.95841 -0.50718,-2.23736 -0.36679,-0.36679 -0.36679,-0.7695 0,-1.45485 0.80332,-1.50101 0.59774,-2.81704 -0.63217,-4.04694 -3.00523,-3.00524 -8.94467,0.12548 -7.25858,3.82604 0.38438,0.84361 0.40406,1.35745 0.065,1.69653 -0.26752,0.26752 -0.4864,1.26498 -0.4864,2.21658 0,2.28651 1.65049,3.65426 4.40967,3.65426 1.28367,0 2.3871,-0.33312 3.18664,-0.96204 z m 5.8648,-0.89466 c 0,-1.8125 -0.0387,-1.85671 -1.62462,-1.85671 -1.58593,0 -1.62461,0.0442 -1.62461,1.85671 0,1.81249 0.0387,1.8567 1.62461,1.8567 1.58594,0 1.62462,-0.0442 1.62462,-1.8567 z"
       id="path18"
       transform="scale(0.26458333)" /><path
       style="opacity:1;fill:#f2f2f2;fill-opacity:1;stroke:#000000;stroke-width:0.52631;stroke-dasharray:none;stroke-opacity:1"
       d="m 413.81307,390.78731 c 0,-1.03825 1.65855,-6.31041 2.94399,-9.35831 4.06804,-9.64568 12.59429,-18.75315 21.99005,-23.48905 l 2.4215,-1.22055 h 18.82999 18.83 l 2.42149,1.2247 c 8.63477,4.36713 16.39375,12.18794 20.70401,20.86897 1.59529,3.21298 4.23003,10.57224 4.23003,11.81515 0,0.27456 -17.3806,0.44022 -46.18553,0.44022 -25.40204,0 -46.18553,-0.12651 -46.18553,-0.28113 z"
       id="path19"
       transform="scale(0.26458333)" /><path
       style="opacity:1;fill:#f2f2f2;fill-opacity:1;stroke:#000000;stroke-width:0.52631;stroke-dasharray:none;stroke-opacity:1"
       d="m 466.93226,445.45652 c 0.29475,-0.9431 7.22372,-29.76731 7.22372,-30.05037 0,-0.1103 6.78857,-0.20055 15.08572,-0.20055 8.29715,0 15.08573,0.10903 15.08573,0.24228 0,0.87342 -3.1435,6.88323 -5.2763,10.08735 -6.82445,10.25238 -16.98222,17.16175 -29.44054,20.02561 -2.6984,0.62029 -2.90232,0.61235 -2.67833,-0.10432 z"
       id="path20"
       transform="scale(0.26458333)" /><path
       style="opacity:1;fill:#f2f2f2;fill-opacity:1;stroke:#000000;stroke-width:0.52631;stroke-dasharray:none;stroke-opacity:1"
       d="m 445.84123,444.41772 c -1.40413,-0.49032 -3.33627,-1.23786 -4.29363,-1.66119 l -1.74066,-0.7697 v -13.42145 -13.42144 l 1.26438,0.14687 c 1.25242,0.14549 1.30058,0.28524 5.08873,14.76843 2.10339,8.04185 3.83209,14.77821 3.84156,14.96968 0.0276,0.55852 -1.41945,0.34594 -4.16038,-0.6112 z"
       id="path21"
       transform="scale(0.26458333)" /><text
       xml:space="preserve"
       style="font-size:3.88056px;opacity:1;fill:#000000;fill-opacity:1;stroke:#000000;stroke-width:0.3;stroke-dasharray:none;stroke-opacity:1"
       x="108.17569"
       y="123.19807"
       id="text12-7-8-1-3-5-4-1-8-1-8-1-2"><tspan
         sodipodi:role="line"
         id="tspan12-8-4-2-8-0-8-2-9-9-2-9-5"
         style="font-size:3.88056px;fill:#000000;stroke-width:0.3;stroke-dasharray:none"
         x="108.17569"
         y="123.19807">14.</tspan></text><path
       style="opacity:1;fill:#f2f2f2;fill-opacity:1;stroke:#000000;stroke-width:0.0465197;stroke-dasharray:none;stroke-opacity:1"
       d="m 324.23529,238.33458 c -0.85236,-0.13975 -1.59286,-0.49828 -2.16094,-1.04629 -0.34413,-0.33196 -0.50699,-0.55 -0.70387,-0.94228 -0.60791,-1.21132 -0.72559,-4.21375 -0.24303,-6.20075 0.11717,-0.48248 0.41891,-1.14317 0.75168,-1.64587 0.43063,-0.65054 1.07257,-1.2121 1.70299,-1.48975 0.88235,-0.3886 2.5556,-0.72775 3.28593,-0.66601 0.96482,0.0816 1.29086,0.51777 1.24363,1.66387 -0.0213,0.5171 -0.0719,0.6319 -0.3097,0.70245 -0.0848,0.0252 -0.63426,0.0623 -1.22096,0.0825 -1.75534,0.0605 -2.31807,0.24505 -2.31807,0.76028 0,0.41844 0.39713,0.63175 1.64111,0.88152 0.99272,0.19932 1.51958,0.40427 2.0309,0.79003 0.52383,0.3952 0.90052,1.13175 1.04727,2.04774 0.0813,0.50778 0.0326,1.55908 -0.0949,2.04575 -0.28606,1.09194 -0.81725,1.85314 -1.67852,2.40534 -0.82636,0.52982 -1.99976,0.77111 -2.97349,0.61146 z"
       id="path22"
       transform="scale(0.26458333)" /><path
       style="opacity:1;fill:#f2f2f2;fill-opacity:1;stroke:#000000;stroke-width:0.0465197;stroke-dasharray:none;stroke-opacity:1"
       d=""
       id="path23"
       transform="scale(0.26458333)" /><path
       style="opacity:1;fill:#f2f2f2;fill-opacity:1;stroke:#000000;stroke-width:0.0465197;stroke-dasharray:none;stroke-opacity:1"
       d="m 324.3557,238.87999 c -1.01727,-0.11836 -1.93721,-0.53967 -2.63127,-1.20503 -0.70643,-0.67723 -1.02414,-1.3031 -1.23222,-2.42743 -0.1342,-0.72513 -0.18209,-1.33443 -0.18014,-2.29187 0.004,-1.77025 0.21341,-3.00884 0.66714,-3.93867 0.54873,-1.12451 1.26551,-1.90714 2.1786,-2.37873 0.70704,-0.36518 1.97771,-0.70117 3.03854,-0.80346 1.28044,-0.12347 2.07047,0.25522 2.34339,1.12327 0.0795,0.25281 0.0924,0.38227 0.0908,0.91014 -0.002,0.54747 -0.012,0.63791 -0.0939,0.81906 -0.11309,0.25022 -0.18925,0.33689 -0.38283,0.43569 -0.25966,0.13253 -0.51682,0.16484 -1.61387,0.20278 -1.01219,0.035 -1.45605,0.0892 -1.65615,0.2022 -0.0542,0.0306 -0.029,0.0547 0.13151,0.12597 0.20021,0.0889 0.47621,0.15917 1.34002,0.34127 0.92401,0.1948 1.67399,0.55934 2.17118,1.05532 0.64848,0.64692 1.02932,1.75359 1.02874,2.98937 -6.8e-4,1.45867 -0.44807,2.66227 -1.30958,3.52314 -0.98467,0.98393 -2.45992,1.48338 -3.89001,1.31698 z m 1.48682,-0.54922 c 1.24936,-0.25854 2.32354,-1.0907 2.81217,-2.17856 0.31334,-0.69762 0.42761,-1.35576 0.39838,-2.29442 -0.0241,-0.77427 -0.13044,-1.25213 -0.40499,-1.82 -0.19785,-0.40922 -0.59184,-0.83314 -0.99311,-1.06857 -0.4495,-0.26372 -1.58562,-0.61986 -1.7992,-0.56401 -0.039,0.0102 -0.0764,0.007 -0.0831,-0.008 -0.007,-0.0145 -0.17491,-0.0674 -0.37375,-0.11756 -0.72698,-0.18329 -1.09496,-0.43027 -1.09496,-0.73494 0,-0.19203 0.19319,-0.3885 0.48335,-0.49155 0.11777,-0.0418 0.21412,-0.0913 0.21412,-0.10987 0,-0.0186 0.0183,-0.0225 0.0406,-0.009 0.0223,0.0138 0.14696,0.004 0.27694,-0.0207 0.31068,-0.0602 0.60617,-0.0782 1.56974,-0.0958 1.23144,-0.0225 1.25135,-0.0383 1.25135,-0.99094 0,-0.45523 -0.0159,-0.6201 -0.0767,-0.79472 -0.0988,-0.28374 -0.31896,-0.50304 -0.62628,-0.62387 -0.59547,-0.23413 -2.27773,-0.036 -3.50888,0.41336 -0.66369,0.24222 -1.23566,0.61188 -1.63409,1.05611 -0.48903,0.54524 -0.98325,1.42127 -1.16654,2.06772 -0.1322,0.46631 -0.25735,1.3031 -0.30902,2.06623 -0.0449,0.66285 -0.0498,1.59504 -0.007,1.39727 0.0143,-0.0664 0.0274,0.13667 0.0293,0.4513 0.005,0.88402 0.18471,1.85125 0.45139,2.43228 0.46577,1.01482 1.39419,1.72747 2.63432,2.0221 0.20103,0.0478 0.42453,0.0759 0.51111,0.0643 0.10231,-0.0137 0.14486,-0.006 0.12701,0.0228 -0.0392,0.0634 0.87307,0.0125 1.27818,-0.0713 z"
       id="path24"
       transform="scale(0.26458333)" /><path
       style="opacity:1;fill:#f2f2f2;fill-opacity:1;stroke:#000000;stroke-width:0.0465197;stroke-dasharray:none;stroke-opacity:1"
       d=""
       id="path25"
       transform="scale(0.26458333)" /><path
       style="opacity:1;fill:#f2f2f2;fill-opacity:1;stroke:#000000;stroke-width:0.0465197;stroke-dasharray:none;stroke-opacity:1"
       d="m 324.35727,238.30728 c -0.59291,-0.0772 -1.25605,-0.32849 -1.77216,-0.6716 -0.34399,-0.22868 -0.84821,-0.75041 -1.03733,-1.07335 -0.45133,-0.77068 -0.65905,-1.91392 -0.65905,-3.62719 0,-2.49451 0.46924,-3.96745 1.62722,-5.10784 0.6289,-0.61935 1.32506,-0.95187 2.56756,-1.22639 1.74235,-0.38497 2.60838,-0.24826 2.87082,0.45317 0.17229,0.46049 0.14866,1.38281 -0.0394,1.53849 -0.10483,0.0868 -0.28069,0.10767 -1.3339,0.15852 -1.33452,0.0644 -1.76711,0.13361 -2.10367,0.33646 -0.33615,0.2026 -0.34291,0.69705 -0.0127,0.93216 0.19544,0.13916 0.59445,0.27045 1.31635,0.4331 1.1563,0.26053 1.61565,0.4372 2.11295,0.81264 0.43589,0.32907 0.77706,0.90899 0.97021,1.64918 0.0835,0.32003 0.0961,0.46222 0.0941,1.06672 -0.003,0.81003 -0.0517,1.16167 -0.23856,1.70914 -0.1912,0.56023 -0.43949,0.97291 -0.83835,1.39346 -0.66347,0.69954 -1.47825,1.09044 -2.55058,1.22367 -0.3887,0.0483 -0.60052,0.0482 -0.97348,-3.4e-4 z"
       id="path26"
       transform="scale(0.26458333)" /><path
       style="opacity:1;fill:#f2f2f2;fill-opacity:1;stroke:#000000;stroke-width:0.0465197;stroke-dasharray:none;stroke-opacity:1"
       d="m 324.4886,238.28482 c -1.05863,-0.15531 -1.84385,-0.54837 -2.49441,-1.24864 -0.61913,-0.66643 -0.9036,-1.48283 -1.0173,-2.91955 -0.044,-0.55625 -0.0346,-2.56037 0.0125,-2.64163 0.0119,-0.0205 0.0345,-0.15738 0.0502,-0.30405 0.0157,-0.14667 0.065,-0.4361 0.10953,-0.64317 0.39777,-1.84894 1.46578,-3.12138 3.05235,-3.6366 1.19058,-0.38663 2.46488,-0.53962 3.07315,-0.36895 0.51668,0.14498 0.73486,0.53093 0.7377,1.30496 0.002,0.44594 -0.0581,0.69385 -0.18344,0.76091 -0.0435,0.0233 -0.35124,0.06 -0.68393,0.0816 -1.96759,0.12788 -2.30666,0.17203 -2.61367,0.34027 -0.42018,0.23026 -0.47076,0.71794 -0.10627,1.02463 0.1714,0.14423 0.45815,0.24413 1.26106,0.43936 1.27354,0.30966 1.67558,0.46248 2.14528,0.81545 0.46774,0.3515 0.81728,0.94948 1.00445,1.7184 0.10617,0.43615 0.0731,1.85163 -0.0542,2.32369 -0.40562,1.50346 -1.51119,2.54332 -3.03399,2.85364 -0.41508,0.0846 -1.02994,0.13327 -1.25893,0.0997 z"
       id="path27"
       transform="scale(0.26458333)" /><path
       style="opacity:1;fill:#f2f2f2;fill-opacity:1;stroke:#000000;stroke-width:0.0465197;stroke-dasharray:none;stroke-opacity:1"
       d="m 281.51202,236.38196 c 0,-10.29003 0.005,-18.70918 0.0103,-18.70923 0.006,-4e-5 0.61952,-0.0835 1.36417,-0.18545 18.33109,-2.5098 37.09722,-4.2662 52.57708,-4.9209 4.5081,-0.19066 6.31019,-0.22956 11.816,-0.25506 8.70938,-0.0403 16.1575,0.15579 25.25259,0.66498 0.99287,0.0556 1.85599,0.10114 1.91805,0.10124 l 0.11282,1.6e-4 v 19.73566 19.73565 l -0.42053,-0.0222 c -0.7059,-0.0373 -4.91067,-0.15762 -7.9081,-0.22629 -25.47402,-0.5836 -50.07835,0.12317 -77.89122,2.23746 -2.65,0.20145 -6.52585,0.50986 -6.67727,0.53133 l -0.15385,0.0218 z m 69.37795,13.70293 c 4.17834,-0.10551 5.08809,-0.25694 6.23295,-1.03745 0.47462,-0.32358 1.21586,-1.08788 1.43782,-1.48257 0.73544,-1.30769 0.99493,-3.03991 1.10681,-7.38833 0.10493,-4.07791 0.0825,-13.34612 -0.0392,-16.18545 -0.12391,-2.8916 -0.36525,-4.48055 -0.84547,-5.56641 -0.27557,-0.62312 -0.80483,-1.25908 -1.45413,-1.74729 -1.02689,-0.77211 -1.67128,-0.94874 -3.85406,-1.0564 -1.11048,-0.0548 -8.78219,-0.0553 -9.78512,-6.9e-4 -1.85945,0.10126 -2.94815,0.31778 -3.86372,0.76841 -1.41383,0.69585 -2.18757,2.06908 -2.53493,4.49895 -0.1156,0.80871 -0.16214,1.30333 -0.23605,2.50853 -0.0676,1.1018 -0.0662,8.18648 0.002,12.94426 0.11734,8.1329 0.21845,9.57123 0.75227,10.70079 0.2702,0.57175 1.08478,1.49413 1.67119,1.89235 1.04151,0.70728 2.50168,1.04005 5.11146,1.1649 0.64791,0.031 4.89497,0.0218 6.29776,-0.0136 z m -25.03894,-11.2214 c 0.63354,-0.12018 1.28068,-0.38333 1.79671,-0.7306 0.32273,-0.21718 0.846,-0.7243 1.06636,-1.03343 0.39773,-0.55795 0.69764,-1.336 0.82235,-2.13344 0.1009,-0.64515 0.066,-1.64386 -0.0774,-2.2155 -0.41559,-1.65641 -1.33752,-2.45171 -3.30443,-2.85055 -0.65264,-0.13233 -1.1353,-0.26705 -1.17252,-0.32726 -0.0554,-0.0896 0.46938,-0.15478 1.66049,-0.20634 1.36951,-0.0593 1.63046,-0.12893 1.85434,-0.49497 0.26859,-0.43914 0.2658,-1.57333 -0.005,-2.15703 -0.31106,-0.66971 -0.84303,-0.93465 -1.86954,-0.93111 -1.22587,0.004 -2.87877,0.43144 -3.80746,0.98407 -0.83606,0.49752 -1.75948,1.71731 -2.11823,2.7981 -0.13484,0.40622 -0.35635,1.51183 -0.31182,1.55637 0.0385,0.0385 0.1025,-0.0795 0.10323,-0.19057 10e-4,-0.16655 0.15882,-0.88044 0.26942,-1.21942 0.42684,-1.30818 1.34483,-2.46011 2.39801,-3.00912 1.1463,-0.59754 3.30503,-0.99397 4.18052,-0.7677 0.54122,0.13987 0.93904,0.46711 1.11817,0.91977 0.0795,0.20096 0.0948,0.3286 0.10839,0.90575 0.0169,0.71664 -0.0147,0.89291 -0.20292,1.13217 -0.20783,0.26422 -0.50764,0.3287 -1.81937,0.3913 -1.3101,0.0625 -1.70265,0.12598 -1.70265,0.27527 0,0.0973 0.33331,0.21184 1.22109,0.41961 0.94193,0.22045 1.42169,0.39443 1.88656,0.68418 0.70256,0.43788 1.13998,1.06808 1.3839,1.99379 0.38242,1.45136 0.15335,3.07563 -0.59436,4.21432 -0.80408,1.22455 -2.25664,1.98014 -3.81513,1.98455 -1.2943,0.004 -2.43672,-0.47093 -3.3054,-1.37314 -0.68662,-0.71311 -0.96299,-1.3824 -1.17471,-2.84476 -0.058,-0.40084 -0.077,-2.9307 -0.0237,-3.1694 0.0231,-0.10361 0.0163,-0.13334 -0.0308,-0.13334 -0.0333,0 -0.0607,0.0231 -0.0609,0.0513 -2.1e-4,0.0282 -0.0191,0.40739 -0.0419,0.84263 -0.0285,0.5432 -0.028,1.01922 0.002,1.51803 0.097,1.6356 0.32356,2.54231 0.82093,3.28483 0.68637,1.02469 1.84107,1.70469 3.20784,1.88908 0.37697,0.0509 1.11257,0.0234 1.53869,-0.0574 z m 7.76975,-0.34195 c 0.2709,-0.10582 0.37132,-0.20322 0.49291,-0.47808 0.12952,-0.29281 0.1912,-1.34645 0.13033,-2.22652 -0.0495,-0.71634 -0.11046,-0.94409 -0.3067,-1.14656 -0.23263,-0.24002 -0.39312,-0.27151 -1.47577,-0.28953 -1.0742,-0.0179 -1.36177,0.021 -1.62196,0.21948 -0.33513,0.25562 -0.39299,0.57405 -0.3722,2.04859 0.0171,1.21593 0.0346,1.33574 0.23634,1.61902 0.10354,0.14541 0.36278,0.27368 0.65751,0.32534 0.12385,0.0217 0.63134,0.0346 1.12778,0.0286 0.81503,-0.01 0.92484,-0.0195 1.13176,-0.10035 z m -8.20905,-0.0899 c 1.19552,-0.12529 2.26382,-0.7289 2.93865,-1.66038 0.52328,-0.7223 0.79399,-1.80233 0.74043,-2.954 -0.0385,-0.82841 -0.14613,-1.28954 -0.43079,-1.84625 -0.20318,-0.39737 -0.70768,-0.90337 -1.09433,-1.09759 -0.39108,-0.19645 -1.08353,-0.42779 -1.45649,-0.4866 -0.41139,-0.0649 -1.12107,-0.26715 -1.35737,-0.38689 -0.22406,-0.11354 -0.40682,-0.31443 -0.40682,-0.44717 0,-0.23352 0.36995,-0.4783 0.87615,-0.57971 0.16324,-0.0327 0.77875,-0.0768 1.38906,-0.0994 1.58561,-0.0588 1.56427,-0.0448 1.56263,-1.02593 -10e-4,-0.67521 -0.0406,-0.86645 -0.23023,-1.11628 -0.29066,-0.38287 -0.79342,-0.51244 -1.70461,-0.43929 -1.79662,0.14423 -3.21048,0.70222 -3.99582,1.57698 -0.47038,0.52395 -0.96856,1.42365 -1.1581,2.09152 -0.13305,0.46883 -0.27479,1.41846 -0.22135,1.48302 0.0214,0.0259 0.073,0.0382 0.1146,0.0273 0.0589,-0.0154 0.0818,-0.0756 0.1037,-0.2727 0.0435,-0.39171 0.18224,-0.99222 0.31866,-1.37886 0.52607,-1.49093 1.49446,-2.46023 2.90428,-2.90703 1.3093,-0.41495 2.6416,-0.527 3.14932,-0.26487 0.20924,0.10803 0.40318,0.37353 0.45734,0.62611 0.0645,0.30073 0.0569,0.958 -0.0129,1.12523 -0.076,0.18186 -0.0462,0.17657 -1.64491,0.29224 -1.03709,0.075 -1.37689,0.1231 -1.62009,0.22915 -0.462,0.20148 -0.61487,0.57884 -0.38996,0.96262 0.14668,0.25028 0.44553,0.38129 1.47669,0.64732 0.98683,0.2546 1.29364,0.35254 1.61645,0.51602 0.6565,0.33247 1.08861,0.8541 1.35332,1.63366 0.16895,0.49755 0.21066,1.18489 0.1263,2.08107 -0.12139,1.2896 -0.90449,2.442 -2.04986,3.01656 -0.8703,0.43657 -1.96142,0.57334 -2.81041,0.35229 -1.18614,-0.30884 -2.1391,-1.09992 -2.54977,-2.11664 -0.29612,-0.73311 -0.39656,-1.50588 -0.40089,-3.08426 -0.002,-0.66915 -0.0172,-1.20809 -0.0341,-1.19764 -0.0169,0.0104 -0.0308,-0.0263 -0.0308,-0.0816 0,-0.0553 -0.0263,-0.11071 -0.0585,-0.12306 -0.19301,-0.0741 -0.15141,2.63117 0.0571,3.70989 0.14921,0.77208 0.3469,1.24799 0.7258,1.74728 0.55036,0.72522 1.51688,1.26575 2.55143,1.42692 0.44088,0.0687 0.6983,0.0732 1.19628,0.021 z"
       id="path28"
       transform="scale(0.26458333)" /><path
       style="opacity:1;fill:#f2f2f2;fill-opacity:1;stroke:#000000;stroke-width:0.0465197;stroke-dasharray:none;stroke-opacity:1"
       d="m 281.55305,236.38502 v -18.66205 l 0.13334,-0.0244 c 0.29981,-0.0549 6.13815,-0.82375 8.58506,-1.13053 18.2818,-2.29201 36.76225,-3.80119 50.8334,-4.15123 2.55317,-0.0635 13.16575,-0.0649 15.93929,-0.002 5.34546,0.12105 9.16,0.26855 15.03667,0.58146 1.26366,0.0673 2.32987,0.12239 2.36936,0.12247 0.0683,1.3e-4 0.0718,0.96552 0.0718,19.69782 v 19.69768 l -0.359,-0.0258 c -0.36393,-0.0261 -3.19298,-0.11176 -6.18493,-0.18723 -13.08477,-0.33001 -26.11187,-0.31626 -38.97638,0.0411 -11.55299,0.32098 -23.2973,0.90942 -35.63262,1.78536 -4.09976,0.29113 -11.47051,0.85746 -11.70317,0.89921 l -0.11282,0.0202 z m 70.73187,13.70148 c 3.4126,-0.13755 4.30806,-0.38999 5.5058,-1.55215 0.48306,-0.4687 0.72346,-0.77669 0.93549,-1.19846 0.8658,-1.72222 1.03688,-4.13226 1.03541,-14.58537 -10e-4,-7.69163 -0.0807,-10.24385 -0.38119,-12.22628 -0.26273,-1.73309 -0.68218,-2.66249 -1.58314,-3.50787 -0.77921,-0.73114 -1.50821,-1.10201 -2.49683,-1.27024 -0.99628,-0.16954 -1.60648,-0.18626 -6.7901,-0.18603 -4.42187,1.9e-4 -5.01962,0.008 -5.66153,0.0725 -2.13646,0.21525 -3.20784,0.60072 -4.06354,1.46202 -1.00992,1.01652 -1.47504,2.50678 -1.72984,5.54252 -0.0724,0.86253 -0.0722,13.24688 2.9e-4,16.53419 0.13762,6.24291 0.25337,7.23727 0.9665,8.30341 0.32861,0.49128 1.0586,1.24185 1.48141,1.52318 1.02914,0.68477 2.31752,0.97693 5.04753,1.14463 0.4775,0.0293 6.74166,-0.0161 7.73374,-0.0561 z m -26.54497,-11.16782 c 0.64318,-0.0885 1.51412,-0.4414 2.03217,-0.82336 0.29842,-0.22002 0.74336,-0.65909 0.96113,-0.94845 0.32793,-0.43572 0.65338,-1.22247 0.8088,-1.9552 0.091,-0.42924 0.10358,-1.70724 0.0211,-2.15396 -0.18816,-1.01932 -0.63875,-1.84109 -1.26872,-2.31382 -0.56629,-0.42493 -1.01837,-0.60664 -2.18525,-0.87829 -0.78862,-0.18359 -1.05389,-0.26021 -1.01961,-0.29449 0.0342,-0.0342 0.76568,-0.10155 1.57349,-0.14481 0.91935,-0.0492 1.33647,-0.10237 1.51802,-0.19338 0.36853,-0.18473 0.51264,-0.50382 0.54355,-1.20351 0.0504,-1.14159 -0.30772,-1.84915 -1.08374,-2.14109 -0.21864,-0.0823 -0.31205,-0.0899 -1.0804,-0.0883 -0.7527,0.002 -0.89927,0.0137 -1.39495,0.11492 -0.67157,0.1372 -1.62591,0.44602 -2.0719,0.67045 -0.60323,0.30356 -1.08604,0.73495 -1.61881,1.44639 -0.28064,0.37476 -0.77362,1.28644 -0.78758,1.45649 -0.0143,0.1746 0.008,0.43076 0.037,0.43022 0.0169,-3.1e-4 0.0644,-0.10647 0.10549,-0.23591 0.32103,-1.01111 1.12837,-2.11436 1.96105,-2.67982 0.8538,-0.57981 2.63042,-1.06339 3.90673,-1.06339 0.8023,0 1.38082,0.29838 1.66731,0.85993 0.14864,0.29137 0.21665,1.27456 0.1195,1.72757 -0.0302,0.14062 -0.0922,0.26373 -0.18448,0.36583 -0.22908,0.25356 -0.37042,0.27791 -2.3821,0.41037 -0.90641,0.0597 -1.17375,0.13344 -1.10768,0.30561 0.0415,0.10804 0.26591,0.18868 1.15698,0.41567 1.32002,0.33626 1.69831,0.49141 2.26691,0.92972 0.64171,0.49466 1.07478,1.43318 1.20135,2.60349 0.12334,1.14041 -0.16214,2.40965 -0.73986,3.28948 -1.37467,2.0935 -4.44507,2.62042 -6.48395,1.11272 -0.30765,-0.22751 -0.78958,-0.71554 -0.97161,-0.98393 -0.37021,-0.54581 -0.57838,-1.17062 -0.72933,-2.189 -0.0521,-0.35169 -0.0651,-0.76148 -0.0617,-1.94882 0.004,-1.42857 5.8e-4,-1.50349 -0.0704,-1.50349 -0.10408,0 -0.13254,0.30178 -0.1412,1.49751 -0.0104,1.44207 0.11683,2.52989 0.38959,3.32973 0.35479,1.0404 1.0457,1.80801 2.09752,2.33038 0.96325,0.47839 1.84039,0.60827 3.01554,0.44651 z m 7.39023,-0.27747 c 0.99204,-0.0765 1.1599,-0.37957 1.16086,-2.09562 8.8e-4,-1.57484 -0.13532,-1.97334 -0.73124,-2.13948 -0.19626,-0.0547 -2.03664,-0.0728 -2.3282,-0.0229 -0.2676,0.0458 -0.54411,0.24017 -0.64849,0.45579 -0.047,0.0971 -0.10588,0.34075 -0.13087,0.5415 -0.0565,0.45411 -0.0226,2.29424 0.0473,2.56784 0.0625,0.24458 0.27592,0.49511 0.50128,0.58845 0.30658,0.12697 1.24217,0.17283 2.12935,0.10437 z m -7.40998,-0.21034 c 1.15231,-0.20542 2.16066,-0.85301 2.75511,-1.76943 0.5048,-0.77823 0.74168,-1.936 0.6379,-3.11789 -0.0597,-0.67974 -0.13271,-0.97514 -0.36239,-1.46578 -0.15768,-0.33686 -0.22838,-0.43291 -0.55972,-0.76044 -0.27543,-0.27227 -0.45225,-0.40972 -0.64593,-0.50212 -0.41572,-0.19833 -0.91793,-0.36313 -1.477,-0.48468 -0.98355,-0.21384 -1.42511,-0.3911 -1.61598,-0.64872 -0.0782,-0.1056 -0.0801,-0.12343 -0.0232,-0.22473 0.17225,-0.30689 0.61259,-0.44425 1.60977,-0.50217 1.56987,-0.0912 1.79093,-0.11341 1.92883,-0.19395 0.22234,-0.12985 0.23843,-0.2013 0.22419,-0.99531 -0.0115,-0.63986 -0.0224,-0.73585 -0.10048,-0.8821 -0.11869,-0.22237 -0.32008,-0.40754 -0.56661,-0.521 -0.19148,-0.0881 -0.25569,-0.0942 -0.96415,-0.0917 -1.47097,0.005 -2.77181,0.36981 -3.76719,1.05589 -0.847,0.5838 -1.60625,1.84058 -1.85174,3.06519 -0.0963,0.4803 -0.10235,0.57391 -0.0372,0.57391 0.0257,0 0.0713,0.0323 0.10126,0.0718 0.0505,0.0665 0.0546,0.065 0.0558,-0.0205 7.2e-4,-0.0508 0.0258,-0.0923 0.0558,-0.0923 0.0349,0 0.0726,-0.0995 0.10491,-0.27693 0.0714,-0.392 0.29828,-1.05081 0.50012,-1.45244 0.73911,-1.47073 1.90033,-2.22207 3.9579,-2.56088 0.50394,-0.083 1.24058,-0.0947 1.52034,-0.0242 0.26403,0.0666 0.47429,0.23851 0.59737,0.48852 0.0851,0.17282 0.096,0.25311 0.096,0.70778 3e-5,0.57624 -0.0313,0.67297 -0.231,0.71291 -0.0723,0.0145 -0.59448,0.0632 -1.16049,0.10823 -0.56601,0.0451 -1.17682,0.10103 -1.35734,0.12433 -0.3924,0.0506 -0.79702,0.23135 -0.92711,0.41404 -0.20677,0.29039 -0.11134,0.75136 0.19793,0.95603 0.21436,0.14185 0.45752,0.22367 1.53773,0.51742 1.19383,0.32465 1.56954,0.50011 2.00644,0.93701 0.25254,0.25254 0.34844,0.38687 0.5012,0.70206 0.28252,0.58292 0.33049,0.82961 0.3311,1.70265 7.7e-4,1.10163 -0.14238,1.69325 -0.57992,2.39671 -0.51229,0.82363 -1.31925,1.40285 -2.32887,1.67161 -0.35344,0.0941 -0.49554,0.10964 -1.0257,0.11227 -0.5236,0.003 -0.66374,-0.0109 -0.93933,-0.0902 -1.0573,-0.30429 -1.93494,-0.99735 -2.37423,-1.87492 -0.14695,-0.29356 -0.30804,-0.82839 -0.38096,-1.26482 -0.0394,-0.23568 -0.0779,-0.89756 -0.10322,-1.77123 -0.0222,-0.76722 -0.0569,-1.45495 -0.0771,-1.52829 -0.0279,-0.10135 -0.0238,-0.13334 0.0171,-0.13334 0.0568,0 0.10365,-0.0872 0.10365,-0.19283 0,-0.0347 -0.06,-0.11555 -0.13334,-0.17973 l -0.13334,-0.11668 -0.0408,0.35745 c -0.0677,0.59251 -0.0458,2.85929 0.0332,3.43453 0.12997,0.94612 0.35179,1.58343 0.7403,2.12702 0.56831,0.79514 1.61816,1.38619 2.74441,1.54508 0.3009,0.0425 1.05578,0.0193 1.40598,-0.0431 z m -5.23457,-7.35223 c 0.11784,-0.29802 0.22913,-1.4264 0.1303,-1.3211 -0.0715,0.0762 -0.31348,1.30387 -0.27065,1.37315 0.0417,0.0675 0.1019,0.0452 0.14035,-0.052 z"
       id="path29"
       transform="scale(0.26458333)" /><path
       style="opacity:1;fill:url(#linearGradient31);fill-opacity:1;stroke:#000000;stroke-width:0.0465197;stroke-dasharray:none;stroke-opacity:1"
       d="M 281.59407,236.37666 V 217.764 l 0.13334,-0.0243 c 0.17596,-0.032 2.38457,-0.32835 4.93359,-0.6619 17.60003,-2.30303 35.48229,-3.90275 49.97182,-4.47041 4.11753,-0.16131 4.44289,-0.16564 12.47244,-0.16564 7.7673,0 8.4492,0.008 12.6981,0.14506 3.83366,0.12385 12.5736,0.53733 12.63398,0.59771 0.0127,0.0127 0.0283,8.85786 0.0348,19.65592 l 0.0117,19.63284 -0.36044,-0.0255 c -0.62176,-0.044 -5.78143,-0.1873 -9.71477,-0.26986 -9.29035,-0.19499 -21.11409,-0.19506 -30.36055,-1.9e-4 -13.85839,0.29208 -28.16287,0.98482 -43.22275,2.0932 -2.8995,0.21339 -7.94484,0.60182 -8.66711,0.66724 l -0.56414,0.0511 z m 67.79839,13.79007 c 3.13851,-0.0372 3.99387,-0.0683 5.07927,-0.18469 1.66325,-0.17829 2.44942,-0.52089 3.43203,-1.49561 0.4515,-0.44787 0.65231,-0.71599 0.87846,-1.17293 0.8554,-1.72834 1.00928,-3.95095 1.00964,-14.5835 2.9e-4,-8.61203 -0.0863,-10.86858 -0.49614,-12.92374 -0.32058,-1.60766 -1.03982,-2.68156 -2.34461,-3.50073 -0.55316,-0.34728 -1.11203,-0.52828 -2.06093,-0.66744 -1.01912,-0.14946 -11.45849,-0.14894 -12.53398,6.2e-4 -1.15752,0.16098 -1.85184,0.33661 -2.45558,0.62118 -0.85582,0.40337 -1.50237,1.04678 -1.95426,1.94477 -0.44594,0.88616 -0.79278,2.52643 -0.91992,4.35046 -0.10631,1.52505 -0.0807,15.008 0.0355,18.70866 0.14244,4.53581 0.29013,5.41173 1.08967,6.46265 0.28446,0.3739 1.09091,1.16096 1.37626,1.34318 0.81098,0.51787 1.77806,0.79776 3.36172,0.97293 1.58292,0.17509 1.82431,0.1797 6.5029,0.12419 z m -23.66574,-11.20322 c 0.42709,-0.0582 1.0775,-0.27849 1.57146,-0.53223 0.57133,-0.29347 1.21285,-0.8618 1.55379,-1.37652 0.11602,-0.17516 0.12917,-0.22631 0.12917,-0.50224 v -0.30722 l -0.20157,0.33539 c -0.25069,0.4171 -0.55945,0.8006 -0.8371,1.03972 -1.52856,1.31643 -3.74332,1.50379 -5.43475,0.45976 -0.20141,-0.12432 -0.48094,-0.36078 -0.76798,-0.64963 -0.37665,-0.37904 -0.48274,-0.51524 -0.64135,-0.82341 -0.48103,-0.93459 -0.6099,-1.7586 -0.60996,-3.90005 -3e-5,-1.35672 -0.017,-1.5065 -0.16078,-1.41585 -0.0922,0.0581 -0.12027,0.40069 -0.12303,1.50032 -0.006,2.56633 0.31739,3.82085 1.24117,4.80841 0.62872,0.67213 1.74838,1.24916 2.67356,1.37788 0.26255,0.0365 1.30228,0.0273 1.60737,-0.0143 z m 7.82742,-0.34632 c 0.44081,-0.11663 0.63251,-0.35229 0.71729,-0.8818 0.0628,-0.39237 0.0524,-2.12796 -0.015,-2.50606 -0.0662,-0.37129 -0.13566,-0.51673 -0.32673,-0.68449 -0.22451,-0.19713 -0.43399,-0.22254 -1.71067,-0.20754 l -1.1316,0.0133 -0.20102,0.12436 c -0.4383,0.27113 -0.49109,0.49383 -0.48606,2.05011 0.004,1.35661 0.0302,1.53101 0.26595,1.79888 0.28899,0.32831 0.65626,0.40131 1.88429,0.37451 0.51222,-0.0112 0.83853,-0.0376 1.00358,-0.0813 z m -7.67059,-0.1829 c 0.82487,-0.16442 1.49953,-0.52989 2.11674,-1.14667 0.62307,-0.62263 0.98574,-1.34306 0.97937,-1.9455 -0.002,-0.16172 0.007,-0.3402 0.0204,-0.39662 0.0129,-0.0564 0.0434,-0.29642 0.0677,-0.53336 0.0243,-0.23693 0.0617,-0.45211 0.0831,-0.47818 0.0484,-0.0589 -0.0239,-0.82833 -0.11324,-1.20396 -0.0349,-0.14667 -0.15228,-0.45137 -0.26091,-0.67712 -0.17615,-0.36609 -0.23925,-0.45083 -0.58405,-0.7844 -0.54073,-0.52311 -0.93672,-0.70115 -2.2687,-1.02002 -0.89171,-0.21347 -1.33263,-0.4062 -1.45579,-0.63632 -0.0339,-0.0634 -0.0176,-0.10631 0.0854,-0.22353 0.20973,-0.23887 0.69447,-0.34752 1.84283,-0.41306 1.36725,-0.078 1.56851,-0.11353 1.74377,-0.30759 0.0759,-0.084 0.0819,-0.1476 0.0806,-0.85553 -0.001,-0.6665 -0.0114,-0.78535 -0.0795,-0.92492 -0.10466,-0.2147 -0.30928,-0.41277 -0.55509,-0.53733 -0.19473,-0.0987 -0.23161,-0.10253 -0.97304,-0.10181 -0.84826,8.3e-4 -1.40648,0.0634 -2.01867,0.22636 -1.58317,0.42138 -2.54177,1.181 -3.22466,2.55531 -0.54814,1.10311 -0.71348,2.32427 -0.6343,4.68463 0.0481,1.43408 0.16908,2.06611 0.53485,2.7944 0.45413,0.90422 1.36677,1.59757 2.50025,1.89947 0.55688,0.14833 1.44372,0.15913 2.11293,0.0258 z m 3.37636,-2.18615 c 0.25124,-0.63273 0.33563,-1.0046 0.3794,-1.67189 0.11028,-1.68148 -0.27081,-2.93923 -1.12758,-3.72135 -0.53253,-0.48614 -1.04021,-0.71316 -2.30054,-1.02875 -0.50774,-0.12714 -0.89977,-0.24425 -0.87118,-0.26025 0.0286,-0.016 0.49491,-0.0587 1.03627,-0.0948 1.53673,-0.10264 1.69405,-0.12649 1.94963,-0.29563 0.20492,-0.13561 0.35265,-0.43105 0.40746,-0.81488 0.0661,-0.46319 0.0549,-0.68939 -0.0394,-0.79059 -0.0451,-0.0484 -0.0822,-0.1027 -0.0823,-0.12056 -1.4e-4,-0.0179 -0.0374,-0.0879 -0.0828,-0.15557 l -0.0825,-0.12309 0.026,0.49234 c 0.032,0.60531 -0.0197,0.92477 -0.18246,1.12726 -0.21716,0.27015 -0.33662,0.29669 -1.84593,0.41004 -1.42748,0.10721 -1.6895,0.15698 -1.68804,0.32065 9.1e-4,0.1008 0.0441,0.15309 0.184,0.22277 0.12067,0.0601 0.27465,0.10501 1.51803,0.44289 1.00253,0.27242 1.49687,0.52493 1.96933,1.00592 0.30024,0.30566 0.48224,0.60498 0.66706,1.09702 0.41231,1.09767 0.41961,2.40896 0.0197,3.54639 -0.0875,0.24902 -0.10934,0.37656 -0.0985,0.57623 0.008,0.14103 0.0282,0.25642 0.0456,0.25642 0.0175,0 0.10688,-0.18924 0.19872,-0.42053 z m 0.17254,-2.80571 c 0,-0.0464 0.0369,-0.12703 0.0821,-0.17906 0.0451,-0.052 0.0821,-0.0865 0.0821,-0.0765 0,0.01 -0.0369,0.0905 -0.0821,0.17907 -0.0581,0.11387 -0.0821,0.13624 -0.0821,0.0765 z m -0.30852,1.33896 0.019,-0.30771 -0.0579,0.2872 c -0.0318,0.15796 -0.0574,0.35181 -0.0569,0.43079 l 0.001,0.1436 0.0378,-0.12309 c 0.0208,-0.0677 0.0464,-0.26155 0.0569,-0.43079 z m 0.0572,-0.58464 -0.005,-0.25643 -0.0326,0.22473 c -0.0299,0.20604 -0.0228,0.28812 0.0247,0.28812 0.01,0 0.0158,-0.11539 0.013,-0.25642 z m -8.69892,-3.0389 c 0.062,-0.0747 0.15934,-0.5198 0.19455,-0.88951 0.0161,-0.16924 0.0513,-0.32617 0.0782,-0.34874 0.0269,-0.0226 0.0911,-0.16103 0.14267,-0.30771 0.10439,-0.29673 0.36168,-0.82644 0.52629,-1.08352 0.37795,-0.59027 0.95985,-1.21291 1.4161,-1.51524 0.73151,-0.48473 2.13159,-0.91041 3.36078,-1.0218 0.61366,-0.0556 1.06236,-0.009 1.40053,0.14597 0.11597,0.0531 0.23386,0.0889 0.26198,0.0795 0.0281,-0.009 0.0511,0.009 0.0511,0.0399 0,0.0313 0.0669,0.12054 0.14863,0.19831 0.15175,0.14436 0.34258,0.49228 0.3433,0.62588 2.3e-4,0.0408 0.0173,0.0638 0.0379,0.051 0.0206,-0.0127 0.0797,0.0462 0.13117,0.13092 0.0515,0.0848 0.10571,0.16334 0.12044,0.17462 0.0147,0.0113 0.0382,0.0482 0.0521,0.0821 0.0323,0.0786 -0.005,-0.20454 -0.0617,-0.47182 -0.10921,-0.51193 -0.44897,-0.95928 -0.87763,-1.15553 -0.23106,-0.10578 -0.31906,-0.10605 -0.21706,-6.6e-4 0.13936,0.144 0.24529,0.28327 0.22834,0.30021 -0.0174,0.0174 -0.16605,-0.12931 -0.35293,-0.34832 l -0.0824,-0.0965 -0.9967,0.0195 c -1.08667,0.0212 -1.33663,0.0608 -2.26856,0.35871 -1.1341,0.36259 -1.6902,0.70083 -2.3122,1.40635 -0.52154,0.59156 -1.15464,1.67975 -1.15464,1.98462 0,0.083 -0.0251,0.18015 -0.0557,0.21578 -0.10111,0.1176 -0.33755,1.28793 -0.28687,1.41998 0.0287,0.0749 0.11276,0.0779 0.17229,0.006 z"
       id="path30"
       transform="scale(0.26458333)" /><rect
       style="opacity:1;fill:#f2f2f2;fill-opacity:1;stroke:none;stroke-width:0.3;stroke-dasharray:none;stroke-opacity:1"
       id="rect31"
       width="3.9404604"
       height="5.2756581"
       x="84.616776"
       y="58.759537"
       ry="1.6579792" /><text
       xml:space="preserve"
       style="font-size:3.88056px;opacity:1;fill:#000000;fill-opacity:1;stroke:#000000;stroke-width:0.3;stroke-dasharray:none;stroke-opacity:1"
       x="85.05294"
       y="63.215103"
       id="text12-7-8-1-3"><tspan
         sodipodi:role="line"
         id="tspan12-8-4-2-8"
         style="font-size:3.88056px;fill:#000000;stroke-width:0.3;stroke-dasharray:none"
         x="85.05294"
         y="63.215103">6.</tspan></text><rect
       style="opacity:1;fill:#f2f2f2;fill-opacity:1;stroke:none;stroke-width:0;stroke-dasharray:none;stroke-opacity:1"
       id="rect32"
       width="6.5705104"
       height="6.4630494"
       x="76.789009"
       y="47.390575"
       ry="1.6579792" /><text
       xml:space="preserve"
       style="font-size:3.88056px;opacity:1;fill:#000000;fill-opacity:1;stroke:#000000;stroke-width:0.3;stroke-dasharray:none;stroke-opacity:1"
       x="79.461365"
       y="52.370049"
       id="text12-7-8-1-3-5"><tspan
         sodipodi:role="line"
         id="tspan12-8-4-2-8-0"
         style="font-size:3.88056px;fill:#000000;stroke-width:0.3;stroke-dasharray:none"
         x="79.461365"
         y="52.370049">8.</tspan></text><path
       style="opacity:1;fill:#d5f6ff;fill-opacity:1;stroke:none;stroke-width:0;stroke-dasharray:none;stroke-opacity:1"
       d="m 188.91971,311.57284 v -37.95183 l 9.97979,-1.51636 c 31.61833,-4.8042 80.28834,-9.84419 112.89779,-11.69106 48.67652,-2.75685 116.85438,1.26815 191.13761,11.28414 l 14.62155,1.9715 v 37.92772 37.92772 l -14.15737,0.003 c -13.24497,0.002 -14.53132,-0.15606 -19.95958,-2.46015 l -5.8022,-2.46282 v -12.858 c 0,-17.2544 0.70821,-16.57107 -17.17452,-16.57107 -17.8684,0 -17.17059,-0.66907 -17.18596,16.47826 l -0.0114,12.76484 -6.30878,2.55297 c -3.46982,1.40413 -7.64226,2.55297 -9.27208,2.55297 -2.9422,0 -2.96331,-0.0335 -2.96331,-4.70279 0,-5.56168 -1.23412,-8.29414 -3.74607,-8.29414 -1.20514,0 -1.82404,-0.62999 -1.82404,-1.85671 0,-1.2378 -0.61891,-1.8567 -1.85671,-1.8567 -1.2378,0 -1.8567,0.6189 -1.8567,1.8567 0,1.02119 -0.41776,1.85671 -0.92835,1.85671 -0.5106,0 -0.92836,-0.62664 -0.92836,-1.39253 0,-0.76589 -0.41776,-1.39253 -0.92835,-1.39253 -0.51059,0 -0.92835,-2.29767 -0.92835,-5.10594 0,-5.37033 -0.8335,-6.17597 -3.9455,-3.81363 -1.76747,1.3417 -2.18483,3.34945 -0.69626,3.34945 0.51059,0 0.92835,1.25328 0.92835,2.78506 0,1.53178 -0.41776,2.78506 -0.92835,2.78506 -0.5106,0 -0.92836,0.62664 -0.92836,1.39253 0,0.76589 -0.41775,1.39253 -0.92835,1.39253 -0.51059,0 -0.92835,-0.62664 -0.92835,-1.39253 0,-0.76589 -0.41776,-1.39253 -0.92835,-1.39253 -0.5106,0 -0.92835,-2.29767 -0.92835,-5.10594 0,-5.37033 -0.83351,-6.17597 -3.9455,-3.81363 -1.76747,1.3417 -2.18483,3.34945 -0.69627,3.34945 0.5106,0 0.92836,1.25328 0.92836,2.78506 0,1.53178 -0.41776,2.78506 -0.92836,2.78506 -0.51059,0 -0.92835,0.60017 -0.92835,1.33371 0,0.82612 -1.14827,1.44442 -3.01714,1.62462 -2.9829,0.2876 -3.02031,0.35149 -3.29556,5.62881 l -0.27842,5.33791 -2.73873,-1.41625 -2.73873,-1.41625 -0.0142,-11.34848 c -0.008,-6.24166 -0.40955,-11.97511 -0.89272,-12.741 -0.70296,-1.1143 -3.67981,-1.45245 -14.89889,-1.69242 -19.34437,-0.41377 -18.73679,-0.88633 -18.36338,14.2825 l 0.28434,11.55046 -3.01715,-0.002 -3.01714,-0.002 v -7.71356 c 0,-11.25132 0.44874,-10.95733 -16.25281,-10.64751 l -13.91864,0.2582 -0.26579,9.62617 c -0.2381,8.62339 -0.47988,9.80487 -2.32088,11.34144 -1.95159,1.62886 -5.10602,1.7168 -62.63009,1.74613 l -60.57499,0.0309 z m 140.4217,9.74405 c 1.36456,-2.00486 0.2497,-5.62097 -2.0972,-6.80233 l -2.32088,-1.16826 2.55297,-0.0137 c 1.64433,-0.009 2.55297,-0.50931 2.55297,-1.40621 0,-1.0315 -1.08308,-1.39253 -4.17759,-1.39253 h -4.17758 v 3.71341 c 0,3.34207 0.23209,3.71341 2.32088,3.71341 1.27648,0 2.32088,0.45095 2.32088,1.00211 0,0.6305 -1.0328,0.77528 -2.78506,0.39042 -2.1955,-0.48222 -2.78505,-0.29498 -2.78505,0.8845 0,2.95606 6.74207,3.80251 8.59566,1.07917 z m 5.32962,-0.57114 c 0,-1.23781 -0.6189,-1.85671 -1.8567,-1.85671 -1.2378,0 -1.85671,0.6189 -1.85671,1.85671 0,1.2378 0.61891,1.8567 1.85671,1.8567 1.2378,0 1.8567,-0.6189 1.8567,-1.8567 z m 38.46031,-5.17225 c 1.73699,-1.73699 1.97057,-8.79833 0.34482,-10.42407 -1.76523,-1.76524 -6.11931,-1.35351 -7.20849,0.68165 -3.42772,6.40475 2.20548,14.40061 6.86367,9.74242 z m -8.75303,-0.86204 c 0,-0.7659 -0.41776,-1.39253 -0.92835,-1.39253 -0.5106,0 -0.92836,-2.0888 -0.92836,-4.64176 0,-4.84987 -0.0975,-4.96347 -3.48132,-4.05664 -2.05365,0.55036 -3.05666,4.05664 -1.16044,4.05664 0.51059,0 0.92835,1.04439 0.92835,2.32088 0,1.27648 -0.41776,2.32088 -0.92835,2.32088 -0.51059,0 -0.92835,0.62663 -0.92835,1.39253 0,1.00571 1.0315,1.39252 3.71341,1.39252 2.68191,0 3.71341,-0.38681 3.71341,-1.39252 z m 14.85364,-0.46418 c 0,-1.2378 -0.61891,-1.85671 -1.85671,-1.85671 -1.2378,0 -1.8567,0.61891 -1.8567,1.85671 0,1.2378 0.6189,1.8567 1.8567,1.8567 1.2378,0 1.85671,-0.6189 1.85671,-1.8567 z m 78.90995,-2.32088 c 0,-0.76589 -0.41776,-1.39253 -0.92835,-1.39253 -0.5106,0 -0.92836,-2.08879 -0.92836,-4.64176 0,-4.75015 -0.65461,-5.40102 -4.10165,-4.07826 -1.59544,0.61222 -2.05447,4.07826 -0.54011,4.07826 0.51059,0 0.92835,1.04439 0.92835,2.32088 0,1.27648 -0.41776,2.32088 -0.92835,2.32088 -0.51059,0 -0.92835,0.62664 -0.92835,1.39253 0,1.00571 1.0315,1.39253 3.71341,1.39253 2.68191,0 3.71341,-0.38682 3.71341,-1.39253 z m 10.21187,0 c 0,-0.80701 -0.84119,-1.39253 -2.00059,-1.39253 -1.91093,0 -1.92861,-0.0795 -0.39458,-1.77461 0.94998,-1.04972 1.48276,-2.85097 1.30432,-4.40967 -0.27244,-2.37969 -0.68405,-2.66273 -4.24717,-2.92053 -3.51521,-0.25434 -3.9455,-0.0662 -3.9455,1.72525 0,1.68121 0.38035,1.91527 2.32088,1.42822 1.67441,-0.42025 2.32088,-0.20846 2.32088,0.76033 0,0.73856 -1.04439,2.16436 -2.32088,3.16845 -3.89512,3.0639 -3.05334,4.80762 2.32088,4.80762 3.50711,0 4.64176,-0.3404 4.64176,-1.39253 z m 4.64177,-0.46418 c 0,-1.2378 -0.61891,-1.8567 -1.85671,-1.8567 -1.2378,0 -1.8567,0.6189 -1.8567,1.8567 0,1.23781 0.6189,1.85671 1.8567,1.85671 1.2378,0 1.85671,-0.6189 1.85671,-1.85671 z"
       id="path32"
       transform="scale(0.26458333)" /><path
       style="opacity:1;fill:#d5f6ff;fill-opacity:1;stroke:none;stroke-width:0;stroke-dasharray:none;stroke-opacity:1"
       d="m 369.59145,313.90552 c -0.42203,-0.0813 -0.75234,-0.43076 -0.9722,-1.02867 -0.16045,-0.43631 -0.18442,-0.69051 -0.21372,-2.26604 -0.0376,-2.02106 0.0444,-2.77206 0.37457,-3.43083 0.29606,-0.59073 0.60998,-0.76423 1.31028,-0.72417 0.45342,0.0259 0.54574,0.0618 0.80363,0.31171 0.2065,0.20015 0.34408,0.44994 0.4724,0.85773 0.16476,0.52359 0.18104,0.74504 0.18104,2.46261 0,2.01287 -0.0771,2.63255 -0.39894,3.2063 -0.28657,0.51088 -0.87635,0.74245 -1.55706,0.61136 z"
       id="path33"
       transform="scale(0.26458333)" /><rect
       style="opacity:1;fill:#d5f6ff;stroke-width:1.009;fill-opacity:1"
       id="rect1"
       width="7.2513156"
       height="4.7763157"
       x="83.439156"
       y="80.944809"
       ry="1.6579792" /><rect
       style="fill:#d5f6ff;fill-opacity:1;stroke-width:1.009"
       id="rect1-8"
       width="7.2513156"
       height="4.7763157"
       x="93.773582"
       y="79.468712"
       ry="1.6579792" /><rect
       style="fill:#d5f6ff;fill-opacity:1;stroke-width:1.13952"
       id="rect1-2"
       width="9.2486839"
       height="4.7763157"
       x="102.89968"
       y="84.452812"
       ry="1.6579792" /><rect
       style="fill:#d5f6ff;fill-opacity:1;stroke-width:1.13952"
       id="rect1-2-6"
       width="9.2486839"
       height="4.7763157"
       x="117.40309"
       y="78.707413"
       ry="1.6579792" /><text
       xml:space="preserve"
       style="font-size:3.88056px;opacity:1;fill:#000000;fill-opacity:1;stroke:#000000;stroke-width:0.3;stroke-dasharray:none;stroke-opacity:1"
       x="85.378258"
       y="85.820045"
       id="text12-7-8-1"><tspan
         sodipodi:role="line"
         id="tspan12-8-4-2"
         style="font-size:3.88056px;fill:#000000;stroke-width:0.3;stroke-dasharray:none"
         x="85.378258"
         y="85.820045">5.</tspan></text><text
       xml:space="preserve"
       style="font-size:3.88056px;opacity:1;fill:#000000;fill-opacity:1;stroke:#000000;stroke-width:0.3;stroke-dasharray:none;stroke-opacity:1"
       x="118.19996"
       y="83.002983"
       id="text12-7-8-1-3-5-4-1-8-1"><tspan
         sodipodi:role="line"
         id="tspan12-8-4-2-8-0-8-2-9-9"
         style="font-size:3.88056px;fill:#000000;stroke-width:0.3;stroke-dasharray:none"
         x="118.19996"
         y="83.002983">11.</tspan></text><text
       xml:space="preserve"
       style="font-size:3.88056px;opacity:1;fill:#000000;fill-opacity:1;stroke:#000000;stroke-width:0.3;stroke-dasharray:none;stroke-opacity:1"
       x="104.7024"
       y="88.686401"
       id="text12-7-8-1-3-5-4-1-8-1-8"><tspan
         sodipodi:role="line"
         id="tspan12-8-4-2-8-0-8-2-9-9-2"
         style="font-size:3.88056px;fill:#000000;stroke-width:0.3;stroke-dasharray:none"
         x="104.7024"
         y="88.686401">12.</tspan></text><text
       xml:space="preserve"
       style="font-size:3.88056px;opacity:1;fill:#000000;fill-opacity:1;stroke:#000000;stroke-width:0.3;stroke-dasharray:none;stroke-opacity:1"
       x="94.129738"
       y="83.90654"
       id="text12-7-8-1-3-5-4-1-8-1-8-1"><tspan
         sodipodi:role="line"
         id="tspan12-8-4-2-8-0-8-2-9-9-2-9"
         style="font-size:3.88056px;fill:#000000;stroke-width:0.3;stroke-dasharray:none"
         x="94.129738"
         y="83.90654">13.</tspan></text><rect
       style="opacity:1;fill:#00ace0;fill-opacity:1;stroke:#000000;stroke-width:0.457582;stroke-dasharray:none;stroke-opacity:1"
       id="rect12"
       width="7.1986723"
       height="6.292737"
       x="66.703049"
       y="95.116982"
       ry="1.6657245" /><text
       xml:space="preserve"
       style="font-size:3.88056px;opacity:1;fill:#000000;fill-opacity:1;stroke:#000000;stroke-width:0.3;stroke-dasharray:none;stroke-opacity:1"
       x="67.347778"
       y="99.653091"
       id="text12-7-8-1-3-5-4-1-8-1-8-1-2-7"><tspan
         sodipodi:role="line"
         id="tspan12-8-4-2-8-0-8-2-9-9-2-9-5-9"
         style="font-size:3.88056px;fill:#000000;stroke-width:0.3;stroke-dasharray:none"
         x="67.347778"
         y="99.653091">15.</tspan></text><rect
       style="fill:#ffc8a5;fill-opacity:1;stroke:#000000;stroke-width:0.454017;stroke-dasharray:none;stroke-opacity:1"
       id="rect9-4-0"
       width="6.8235269"
       height="5.8863587"
       x="132.08569"
       y="112.54687"
       ry="0.7766723" /><text
       xml:space="preserve"
       style="font-size:3.88056px;opacity:1;fill:#000000;fill-opacity:1;stroke:#000000;stroke-width:0.3;stroke-dasharray:none;stroke-opacity:1"
       x="133.59587"
       y="117.7701"
       id="text12-7-8-1-3-5-4-1-8"><tspan
         sodipodi:role="line"
         id="tspan12-8-4-2-8-0-8-2-9"
         style="font-size:3.88056px;fill:#000000;stroke-width:0.3;stroke-dasharray:none"
         x="133.59587"
         y="117.7701">10</tspan></text><ellipse
       style="opacity:1;fill:none;stroke:#000000;stroke-width:2.647;stroke-dasharray:none;stroke-opacity:1"
       id="path2"
       cx="121.70537"
       cy="105.75954"
       rx="13.831646"
       ry="13.791309" /><rect
       style="fill:#72dbff;fill-opacity:1;stroke:#000000;stroke-width:0.440885;stroke-dasharray:none;stroke-opacity:1"
       id="rect9-4"
       width="5.2497187"
       height="9.0472994"
       x="133.63647"
       y="121.56237"
       ry="1.1937407" /><text
       xml:space="preserve"
       style="font-size:3.88056px;opacity:1;fill:#000000;fill-opacity:1;stroke:#000000;stroke-width:0.3;stroke-dasharray:none;stroke-opacity:1"
       x="134.7057"
       y="127.51931"
       id="text12-7-7"><tspan
         sodipodi:role="line"
         id="tspan12-8-0"
         style="font-size:3.88056px;fill:#000000;stroke-width:0.3;stroke-dasharray:none"
         x="134.7057"
         y="127.51931">3.</tspan></text></g></svg>
